<svg xmlns="http://www.w3.org/2000/svg" viewBox="0 0 142.52 94.86"><defs><style>.cls-1{fill:#e41c22;fill-rule:evenodd;}</style></defs><title>Ресурс 1</title><g id="Слой_2" data-name="Слой 2"><g id="Слой_1-2" data-name="Слой 1"><path class="cls-1" d="M123,45.55h10.33c3.33,5.92,3.13,11.55,0,17-5.8,6.76-13,6.5-20.85,3.06C119,60.29,122,53.38,123,45.55Zm-19.29,0,12.83.06c-.78,5.67-3,10.47-7.25,14.09a27.27,27.27,0,0,0-8.2-5.74,31.49,31.49,0,0,0,2.61-8.41Zm-3.55,10.9a27.24,27.24,0,0,1,7.2,4.85A33.56,33.56,0,0,1,92.9,67a43,43,0,0,0,7.28-10.48Zm-11.2-3a30.58,30.58,0,0,1,8.92,2A45.93,45.93,0,0,1,89,67.19L89,53.46ZM79.79,64.92,80.92,66c-.58-.21-1.16-.42-1.76-.59a3.07,3.07,0,0,0,.64-.53Zm10.45-19.3h10.93a65.24,65.24,0,0,1-2.27,7.49,31.3,31.3,0,0,0-9.64-2.24l1-5.25ZM73,69.69c10.52,4.72,20.1,6,33.64-.42,9.5,7,22.39,7.34,30.91-1.65,7-9.15,6.67-19.37-1.29-28.57l-45.67.15C90.06,53.81,85.08,62.77,73,69.69ZM86.48,57.1l-.07,9.63a20,20,0,0,1-4.75-3.58,29.56,29.56,0,0,0,4.82-6.05Z"/><path class="cls-1" d="M44.85,21.18a31.3,31.3,0,0,0,10,1.31q-.4,2.58-.8,4.87c-3.61,0-7.22-.07-10.83-.07.47-2,1-4.07,1.67-6.1ZM61.77,7.12a17,17,0,0,1,3.68,1.51L64,9.81,61.77,7.12Zm-4.49-.46h.35a51.29,51.29,0,0,1,4.54,5A28.25,28.25,0,0,0,57.28,18V6.67Zm-3.68.27,1.14-.15-.15,13.37a35.88,35.88,0,0,1-8.94-1.45A33.33,33.33,0,0,1,53.6,6.94Zm-4.31.8A40.14,40.14,0,0,0,43,17.91a23.1,23.1,0,0,1-6-4.29A44.38,44.38,0,0,1,49.29,7.74ZM35.08,15.4a25.48,25.48,0,0,0,7.41,4.87,45.7,45.7,0,0,0-2,7.11l-12.59.08a19.17,19.17,0,0,1,7.18-12Zm-28.27-7H20.86c3.5.58,6.49,1.61,8.34,3.63a26,26,0,0,0-8,15.37H6.81v-19ZM53.64,33.63.14,33.52V2.07C20,2.07,26.6.42,34.16,7.69c16.1-9.69,29-9.49,37.08-3C59.15,11.5,54.17,19.07,53.64,33.63Z"/><path class="cls-1" d="M.12,82.15h6a4.22,4.22,0,0,1,2.41.57A2.59,2.59,0,0,1,9.56,84a4.15,4.15,0,0,1,.23,1.31,2.56,2.56,0,0,1-.53,1.59,2.89,2.89,0,0,1-1.39,1v0a3.89,3.89,0,0,1,1.82,1,2.84,2.84,0,0,1,.8,2.17A3.39,3.39,0,0,1,10,92.83a3.17,3.17,0,0,1-1.38,1.23,5,5,0,0,1-2.2.45H.12V82.15ZM3.58,87H5q1.58,0,1.59-1.17A1.19,1.19,0,0,0,6.26,85,1.71,1.71,0,0,0,5,84.62H3.58V87Zm0,5H5.18Q7,92,7,90.73a1,1,0,0,0-.54-1,3.34,3.34,0,0,0-1.32-.23H3.58V92Z"/><path class="cls-1" d="M18.31,94.86A7,7,0,0,1,14.79,94a5.79,5.79,0,0,1-2.31-2.34,7.38,7.38,0,0,1,0-6.7,5.78,5.78,0,0,1,2.32-2.33,7.07,7.07,0,0,1,3.52-.85,7.08,7.08,0,0,1,3.52.85A5.79,5.79,0,0,1,24.15,85a7,7,0,0,1,.8,3.35,7.27,7.27,0,0,1-.46,2.61,5.83,5.83,0,0,1-3.42,3.44,7.59,7.59,0,0,1-2.76.48Zm0-3a3.08,3.08,0,0,0,1.47-.37,2.88,2.88,0,0,0,1.16-1.18,4.73,4.73,0,0,0,0-4,2.91,2.91,0,0,0-1.16-1.18,3.06,3.06,0,0,0-2.94,0,2.91,2.91,0,0,0-1.16,1.18,4.73,4.73,0,0,0,0,4,2.88,2.88,0,0,0,1.16,1.18,3.08,3.08,0,0,0,1.47.37Z"/><path class="cls-1" d="M35.87,93.95a5.79,5.79,0,0,1-3.34.92A6.41,6.41,0,0,1,29.13,94,5.68,5.68,0,0,1,27,91.63a7.28,7.28,0,0,1-.75-3.3,6.79,6.79,0,0,1,.91-3.6,5.78,5.78,0,0,1,2.35-2.21,6.62,6.62,0,0,1,3-.72,5.9,5.9,0,0,1,3.39,1v3.59a3.8,3.8,0,0,0-2.93-1.48,3,3,0,0,0-1.72.49,3.11,3.11,0,0,0-1.08,1.31,4.21,4.21,0,0,0-.36,1.74,3.64,3.64,0,0,0,.41,1.76,2.9,2.9,0,0,0,1.14,1.17,3.24,3.24,0,0,0,1.62.41,4.08,4.08,0,0,0,2.93-1.34v3.51Z"/><polygon class="cls-1" points="39.45 94.51 39.45 85.12 36.73 85.12 36.73 82.15 45.63 82.15 45.63 85.12 42.91 85.12 42.91 94.51 39.45 94.51 39.45 94.51"/><path class="cls-1" d="M53.09,94.86A7,7,0,0,1,49.57,94a5.79,5.79,0,0,1-2.31-2.34,7.38,7.38,0,0,1,0-6.7,5.78,5.78,0,0,1,2.32-2.33,7.74,7.74,0,0,1,7,0A5.79,5.79,0,0,1,58.93,85a7,7,0,0,1,.8,3.35,7.27,7.27,0,0,1-.46,2.61,5.83,5.83,0,0,1-3.42,3.44,7.59,7.59,0,0,1-2.76.48Zm0-3a3.08,3.08,0,0,0,1.47-.37,2.88,2.88,0,0,0,1.16-1.18,4.73,4.73,0,0,0,0-4,2.91,2.91,0,0,0-1.16-1.18,3.06,3.06,0,0,0-2.94,0,2.91,2.91,0,0,0-1.16,1.18,4.73,4.73,0,0,0,0,4,2.88,2.88,0,0,0,1.16,1.18,3.08,3.08,0,0,0,1.47.37Z"/><polygon class="cls-1" points="61.53 94.51 61.53 82.15 64.99 82.15 64.99 87.34 68.72 82.15 72.78 82.15 68.09 88.13 72.9 94.51 68.58 94.51 64.99 89.19 64.99 94.51 61.53 94.51 61.53 94.51"/><polygon class="cls-1" points="73.61 88.33 79.62 88.33 79.62 91.05 73.61 91.05 73.61 88.33 73.61 88.33"/><path class="cls-1" d="M39.58,45.74H41l1.72,7.77-.92.37a20.19,20.19,0,0,0-2.21-8.14Zm2,11.13L43.41,56a29.55,29.55,0,0,0,5.47,10.29,36.49,36.49,0,0,1-9.21-4.32,21.88,21.88,0,0,0,1.9-5.08ZM6.29,45.78h24c3.34,1.39,4.38,4.46,4.84,7.36.87,5.55-3.28,10.3-10.57,12.08H6.29V45.78Zm37.32-.06H54.32v5a30.69,30.69,0,0,0-9.21,1.84l-1.5-6.85ZM45.8,55a33.5,33.5,0,0,1,8.62-1.77l0,14.06-.72-.13A23.49,23.49,0,0,1,45.8,55Zm22.05.56a35.82,35.82,0,0,1,7.67,4.65c-4.07,3.07-8.54,5.68-14.45,6.65a35.76,35.76,0,0,0,6.78-11.3Zm-2.42-.85a32.5,32.5,0,0,0-8.49-1.54l0,14.06c2.31-1.72,5.43-5.34,8.45-12.52Zm-8.5-9H67.8c-.42,2.31-.92,4.48-1.5,6.54a30.66,30.66,0,0,0-9.36-1.47V45.68Zm13.51-.06H83.74a23,23,0,0,1-6.36,12.9,31.93,31.93,0,0,0-8.69-5.43,61.21,61.21,0,0,0,1.75-7.46ZM73,69.69c12.09-6.92,17.07-15.88,17.58-30.5L0,39.29V71.73l23.76-.05a18.73,18.73,0,0,0,11.68-4.61C48.74,75.6,60.93,74.75,73,69.69Z"/><path class="cls-1" d="M100.38,27.36l33.21-.07C137.19,17,134.47,7,122.76,6.58c-12,1-18.56,9.52-22.38,20.78ZM89,22.81a29,29,0,0,0,6.64-1.24A24.22,24.22,0,0,0,94,27.39H89V22.81ZM92.71,6.88a21.81,21.81,0,0,1,9.89,3.57,21.41,21.41,0,0,0-4,5.37,35.9,35.9,0,0,0-5.92-8.94ZM89,6.79c2.95,2.48,5.56,6.4,7.89,11.52a25.87,25.87,0,0,1-7.83,1.89L89,6.79Zm-2.53.11-.07,13.37a33.68,33.68,0,0,1-8.65-1.45c.87-2.62,7.29-11.43,8.72-11.92ZM76.68,21.29c3.57.94,6.82,1.76,9.81,1.53-.27,1.72.23,3.07,0,4.59L75,27.39q.71-3.05,1.71-6.1ZM66.83,16a24,24,0,0,0,7.56,4.39,44.44,44.44,0,0,0-2.08,7c-4.2,0-7.63,0-11.83,0A24,24,0,0,1,66.83,16Zm15.59-8.7a44.9,44.9,0,0,0-7,10.76c-2.11-1-5.15-2-6.69-3.78,3.75-3.05,8.77-6.08,13.74-7ZM53.64,33.63l83.61.18c6.87-10.72,5.42-19.78-.36-28-9.66-8.39-19.47-7.07-29.59.07C95.33-2.35,81.5-1.07,71.23,4.7,59.15,11.5,54.17,19.07,53.64,33.63Z"/><path class="cls-1" d="M82.87,87h2c1.22,0,1.84-.42,1.84-1.27a1.07,1.07,0,0,0-.47-.89,2.16,2.16,0,0,0-1.3-.34,4.61,4.61,0,0,0-2.49.84l-1.2-2.42A7.55,7.55,0,0,1,83.5,82a9.59,9.59,0,0,1,1.88-.22,6.27,6.27,0,0,1,2.54.48,3.85,3.85,0,0,1,1.65,1.28,3,3,0,0,1,.56,1.74A2.79,2.79,0,0,1,89.56,87a3,3,0,0,1-1.46,1.05v.05a2.89,2.89,0,0,1,2.29,2.95,3.18,3.18,0,0,1-.69,2.07,4.2,4.2,0,0,1-1.83,1.29,6.85,6.85,0,0,1-2.43.43,8.49,8.49,0,0,1-1.58-.13,5.66,5.66,0,0,1-1.48-.54A11.74,11.74,0,0,1,80.57,93L82,90.73a6.29,6.29,0,0,0,1.48,1,3.45,3.45,0,0,0,1.53.4,2,2,0,0,0,1.38-.4,1.25,1.25,0,0,0,.44-1q0-1.29-2-1.29h-2V87Z"/><path class="cls-1" d="M90.88,94.51l4.4-12.36h4.2l4.38,12.36h-3.71l-.67-2.13h-4.2l-.69,2.13Zm6.5-9.41L96,89.66H98.8L97.39,85.1Z"/><polygon class="cls-1" points="104.98 94.51 104.98 82.15 116 82.15 116 94.51 112.54 94.51 112.54 85.12 108.44 85.12 108.44 94.51 104.98 94.51 104.98 94.51"/><path class="cls-1" d="M117.11,94.51l4.4-12.36h4.2l4.38,12.36h-3.71l-.67-2.13h-4.2l-.69,2.13Zm6.5-9.41-1.42,4.56H125l-1.41-4.56Z"/><path class="cls-1" d="M131.21,94.51V82.15h4.52a7.9,7.9,0,0,1,2.93.49,5.09,5.09,0,0,1,2,1.35,5.38,5.38,0,0,1,1.1,2,7.91,7.91,0,0,1,.34,2.37,6.82,6.82,0,0,1-.75,3.26,5.13,5.13,0,0,1-2.18,2.16,7.22,7.22,0,0,1-3.43.76Zm3.46-3h.39q2.08,0,2.77-1a3.9,3.9,0,0,0,0-4.43q-.69-1-2.78-1h-.39v6.43Z"/></g></g></svg>